<?xml version="1.0" standalone="no"?>
<svg xmlns="http://www.w3.org/2000/svg" width="500" height="500"><defs><clipPath id="clip-path-dot-color"><rect x="18" y="162" width="16" height="16" transform="rotate(0,26,170)"/><rect x="18" y="178" width="16" height="16" transform="rotate(0,26,186)"/><rect x="18" y="226" width="16" height="16" transform="rotate(0,26,234)"/><rect x="18" y="306" width="16" height="16" transform="rotate(0,26,314)"/><rect x="18" y="322" width="16" height="16" transform="rotate(0,26,330)"/><rect x="18" y="338" width="16" height="16" transform="rotate(0,26,346)"/><rect x="34" y="194" width="16" height="16" transform="rotate(0,42,202)"/><rect x="34" y="290" width="16" height="16" transform="rotate(0,42,298)"/><rect x="34" y="306" width="16" height="16" transform="rotate(0,42,314)"/><rect x="34" y="322" width="16" height="16" transform="rotate(0,42,330)"/><rect x="34" y="338" width="16" height="16" transform="rotate(0,42,346)"/><rect x="50" y="146" width="16" height="16" transform="rotate(0,58,154)"/><rect x="50" y="210" width="16" height="16" transform="rotate(0,58,218)"/><rect x="50" y="226" width="16" height="16" transform="rotate(0,58,234)"/><rect x="50" y="242" width="16" height="16" transform="rotate(0,58,250)"/><rect x="50" y="258" width="16" height="16" transform="rotate(0,58,266)"/><rect x="50" y="274" width="16" height="16" transform="rotate(0,58,282)"/><rect x="50" y="290" width="16" height="16" transform="rotate(0,58,298)"/><rect x="50" y="306" width="16" height="16" transform="rotate(0,58,314)"/><rect x="50" y="338" width="16" height="16" transform="rotate(0,58,346)"/><rect x="66" y="178" width="16" height="16" transform="rotate(0,74,186)"/><rect x="66" y="194" width="16" height="16" transform="rotate(0,74,202)"/><rect x="66" y="226" width="16" height="16" transform="rotate(0,74,234)"/><rect x="66" y="274" width="16" height="16" transform="rotate(0,74,282)"/><rect x="66" y="338" width="16" height="16" transform="rotate(0,74,346)"/><rect x="82" y="146" width="16" height="16" transform="rotate(0,90,154)"/><rect x="82" y="162" width="16" height="16" transform="rotate(0,90,170)"/><rect x="82" y="178" width="16" height="16" transform="rotate(0,90,186)"/><rect x="82" y="210" width="16" height="16" transform="rotate(0,90,218)"/><rect x="82" y="290" width="16" height="16" transform="rotate(0,90,298)"/><rect x="82" y="306" width="16" height="16" transform="rotate(0,90,314)"/><rect x="98" y="146" width="16" height="16" transform="rotate(0,106,154)"/><rect x="98" y="178" width="16" height="16" transform="rotate(0,106,186)"/><rect x="98" y="194" width="16" height="16" transform="rotate(0,106,202)"/><rect x="98" y="210" width="16" height="16" transform="rotate(0,106,218)"/><rect x="98" y="242" width="16" height="16" transform="rotate(0,106,250)"/><rect x="98" y="258" width="16" height="16" transform="rotate(0,106,266)"/><rect x="98" y="290" width="16" height="16" transform="rotate(0,106,298)"/><rect x="98" y="322" width="16" height="16" transform="rotate(0,106,330)"/><rect x="114" y="146" width="16" height="16" transform="rotate(0,122,154)"/><rect x="114" y="178" width="16" height="16" transform="rotate(0,122,186)"/><rect x="114" y="210" width="16" height="16" transform="rotate(0,122,218)"/><rect x="114" y="242" width="16" height="16" transform="rotate(0,122,250)"/><rect x="114" y="274" width="16" height="16" transform="rotate(0,122,282)"/><rect x="114" y="306" width="16" height="16" transform="rotate(0,122,314)"/><rect x="114" y="338" width="16" height="16" transform="rotate(0,122,346)"/><rect x="130" y="162" width="16" height="16" transform="rotate(0,138,170)"/><rect x="130" y="210" width="16" height="16" transform="rotate(0,138,218)"/><rect x="130" y="242" width="16" height="16" transform="rotate(0,138,250)"/><rect x="130" y="322" width="16" height="16" transform="rotate(0,138,330)"/><rect x="146" y="34" width="16" height="16" transform="rotate(0,154,42)"/><rect x="146" y="82" width="16" height="16" transform="rotate(0,154,90)"/><rect x="146" y="114" width="16" height="16" transform="rotate(0,154,122)"/><rect x="146" y="146" width="16" height="16" transform="rotate(0,154,154)"/><rect x="146" y="162" width="16" height="16" transform="rotate(0,154,170)"/><rect x="146" y="226" width="16" height="16" transform="rotate(0,154,234)"/><rect x="146" y="242" width="16" height="16" transform="rotate(0,154,250)"/><rect x="146" y="274" width="16" height="16" transform="rotate(0,154,282)"/><rect x="146" y="322" width="16" height="16" transform="rotate(0,154,330)"/><rect x="146" y="354" width="16" height="16" transform="rotate(0,154,362)"/><rect x="146" y="386" width="16" height="16" transform="rotate(0,154,394)"/><rect x="146" y="402" width="16" height="16" transform="rotate(0,154,410)"/><rect x="146" y="434" width="16" height="16" transform="rotate(0,154,442)"/><rect x="162" y="18" width="16" height="16" transform="rotate(0,170,26)"/><rect x="162" y="98" width="16" height="16" transform="rotate(0,170,106)"/><rect x="162" y="146" width="16" height="16" transform="rotate(0,170,154)"/><rect x="162" y="162" width="16" height="16" transform="rotate(0,170,170)"/><rect x="162" y="178" width="16" height="16" transform="rotate(0,170,186)"/><rect x="162" y="210" width="16" height="16" transform="rotate(0,170,218)"/><rect x="162" y="226" width="16" height="16" transform="rotate(0,170,234)"/><rect x="162" y="258" width="16" height="16" transform="rotate(0,170,266)"/><rect x="162" y="290" width="16" height="16" transform="rotate(0,170,298)"/><rect x="162" y="306" width="16" height="16" transform="rotate(0,170,314)"/><rect x="162" y="370" width="16" height="16" transform="rotate(0,170,378)"/><rect x="162" y="386" width="16" height="16" transform="rotate(0,170,394)"/><rect x="162" y="402" width="16" height="16" transform="rotate(0,170,410)"/><rect x="162" y="450" width="16" height="16" transform="rotate(0,170,458)"/><rect x="162" y="466" width="16" height="16" transform="rotate(0,170,474)"/><rect x="178" y="34" width="16" height="16" transform="rotate(0,186,42)"/><rect x="178" y="66" width="16" height="16" transform="rotate(0,186,74)"/><rect x="178" y="82" width="16" height="16" transform="rotate(0,186,90)"/><rect x="178" y="114" width="16" height="16" transform="rotate(0,186,122)"/><rect x="178" y="130" width="16" height="16" transform="rotate(0,186,138)"/><rect x="178" y="194" width="16" height="16" transform="rotate(0,186,202)"/><rect x="178" y="210" width="16" height="16" transform="rotate(0,186,218)"/><rect x="178" y="226" width="16" height="16" transform="rotate(0,186,234)"/><rect x="178" y="258" width="16" height="16" transform="rotate(0,186,266)"/><rect x="178" y="290" width="16" height="16" transform="rotate(0,186,298)"/><rect x="178" y="306" width="16" height="16" transform="rotate(0,186,314)"/><rect x="178" y="354" width="16" height="16" transform="rotate(0,186,362)"/><rect x="178" y="386" width="16" height="16" transform="rotate(0,186,394)"/><rect x="178" y="418" width="16" height="16" transform="rotate(0,186,426)"/><rect x="178" y="434" width="16" height="16" transform="rotate(0,186,442)"/><rect x="178" y="466" width="16" height="16" transform="rotate(0,186,474)"/><rect x="194" y="18" width="16" height="16" transform="rotate(0,202,26)"/><rect x="194" y="34" width="16" height="16" transform="rotate(0,202,42)"/><rect x="194" y="50" width="16" height="16" transform="rotate(0,202,58)"/><rect x="194" y="98" width="16" height="16" transform="rotate(0,202,106)"/><rect x="194" y="130" width="16" height="16" transform="rotate(0,202,138)"/><rect x="194" y="146" width="16" height="16" transform="rotate(0,202,154)"/><rect x="194" y="162" width="16" height="16" transform="rotate(0,202,170)"/><rect x="194" y="178" width="16" height="16" transform="rotate(0,202,186)"/><rect x="194" y="226" width="16" height="16" transform="rotate(0,202,234)"/><rect x="194" y="242" width="16" height="16" transform="rotate(0,202,250)"/><rect x="194" y="290" width="16" height="16" transform="rotate(0,202,298)"/><rect x="194" y="306" width="16" height="16" transform="rotate(0,202,314)"/><rect x="194" y="354" width="16" height="16" transform="rotate(0,202,362)"/><rect x="194" y="418" width="16" height="16" transform="rotate(0,202,426)"/><rect x="194" y="450" width="16" height="16" transform="rotate(0,202,458)"/><rect x="194" y="466" width="16" height="16" transform="rotate(0,202,474)"/><rect x="210" y="18" width="16" height="16" transform="rotate(0,218,26)"/><rect x="210" y="34" width="16" height="16" transform="rotate(0,218,42)"/><rect x="210" y="66" width="16" height="16" transform="rotate(0,218,74)"/><rect x="210" y="82" width="16" height="16" transform="rotate(0,218,90)"/><rect x="210" y="114" width="16" height="16" transform="rotate(0,218,122)"/><rect x="210" y="130" width="16" height="16" transform="rotate(0,218,138)"/><rect x="210" y="146" width="16" height="16" transform="rotate(0,218,154)"/><rect x="210" y="162" width="16" height="16" transform="rotate(0,218,170)"/><rect x="210" y="178" width="16" height="16" transform="rotate(0,218,186)"/><rect x="210" y="210" width="16" height="16" transform="rotate(0,218,218)"/><rect x="210" y="226" width="16" height="16" transform="rotate(0,218,234)"/><rect x="210" y="242" width="16" height="16" transform="rotate(0,218,250)"/><rect x="210" y="258" width="16" height="16" transform="rotate(0,218,266)"/><rect x="210" y="290" width="16" height="16" transform="rotate(0,218,298)"/><rect x="210" y="386" width="16" height="16" transform="rotate(0,218,394)"/><rect x="210" y="418" width="16" height="16" transform="rotate(0,218,426)"/><rect x="210" y="466" width="16" height="16" transform="rotate(0,218,474)"/><rect x="226" y="18" width="16" height="16" transform="rotate(0,234,26)"/><rect x="226" y="34" width="16" height="16" transform="rotate(0,234,42)"/><rect x="226" y="82" width="16" height="16" transform="rotate(0,234,90)"/><rect x="226" y="98" width="16" height="16" transform="rotate(0,234,106)"/><rect x="226" y="178" width="16" height="16" transform="rotate(0,234,186)"/><rect x="226" y="274" width="16" height="16" transform="rotate(0,234,282)"/><rect x="226" y="306" width="16" height="16" transform="rotate(0,234,314)"/><rect x="226" y="370" width="16" height="16" transform="rotate(0,234,378)"/><rect x="226" y="402" width="16" height="16" transform="rotate(0,234,410)"/><rect x="226" y="434" width="16" height="16" transform="rotate(0,234,442)"/><rect x="226" y="466" width="16" height="16" transform="rotate(0,234,474)"/><rect x="242" y="82" width="16" height="16" transform="rotate(0,250,90)"/><rect x="242" y="114" width="16" height="16" transform="rotate(0,250,122)"/><rect x="242" y="146" width="16" height="16" transform="rotate(0,250,154)"/><rect x="242" y="178" width="16" height="16" transform="rotate(0,250,186)"/><rect x="242" y="194" width="16" height="16" transform="rotate(0,250,202)"/><rect x="242" y="274" width="16" height="16" transform="rotate(0,250,282)"/><rect x="242" y="290" width="16" height="16" transform="rotate(0,250,298)"/><rect x="242" y="338" width="16" height="16" transform="rotate(0,250,346)"/><rect x="242" y="354" width="16" height="16" transform="rotate(0,250,362)"/><rect x="242" y="370" width="16" height="16" transform="rotate(0,250,378)"/><rect x="242" y="402" width="16" height="16" transform="rotate(0,250,410)"/><rect x="242" y="450" width="16" height="16" transform="rotate(0,250,458)"/><rect x="242" y="466" width="16" height="16" transform="rotate(0,250,474)"/><rect x="258" y="18" width="16" height="16" transform="rotate(0,266,26)"/><rect x="258" y="34" width="16" height="16" transform="rotate(0,266,42)"/><rect x="258" y="82" width="16" height="16" transform="rotate(0,266,90)"/><rect x="258" y="146" width="16" height="16" transform="rotate(0,266,154)"/><rect x="258" y="162" width="16" height="16" transform="rotate(0,266,170)"/><rect x="258" y="210" width="16" height="16" transform="rotate(0,266,218)"/><rect x="258" y="226" width="16" height="16" transform="rotate(0,266,234)"/><rect x="258" y="242" width="16" height="16" transform="rotate(0,266,250)"/><rect x="258" y="258" width="16" height="16" transform="rotate(0,266,266)"/><rect x="258" y="290" width="16" height="16" transform="rotate(0,266,298)"/><rect x="258" y="306" width="16" height="16" transform="rotate(0,266,314)"/><rect x="258" y="322" width="16" height="16" transform="rotate(0,266,330)"/><rect x="258" y="338" width="16" height="16" transform="rotate(0,266,346)"/><rect x="258" y="354" width="16" height="16" transform="rotate(0,266,362)"/><rect x="258" y="386" width="16" height="16" transform="rotate(0,266,394)"/><rect x="258" y="418" width="16" height="16" transform="rotate(0,266,426)"/><rect x="258" y="450" width="16" height="16" transform="rotate(0,266,458)"/><rect x="258" y="466" width="16" height="16" transform="rotate(0,266,474)"/><rect x="274" y="34" width="16" height="16" transform="rotate(0,282,42)"/><rect x="274" y="98" width="16" height="16" transform="rotate(0,282,106)"/><rect x="274" y="114" width="16" height="16" transform="rotate(0,282,122)"/><rect x="274" y="178" width="16" height="16" transform="rotate(0,282,186)"/><rect x="274" y="242" width="16" height="16" transform="rotate(0,282,250)"/><rect x="274" y="258" width="16" height="16" transform="rotate(0,282,266)"/><rect x="274" y="306" width="16" height="16" transform="rotate(0,282,314)"/><rect x="274" y="354" width="16" height="16" transform="rotate(0,282,362)"/><rect x="290" y="18" width="16" height="16" transform="rotate(0,298,26)"/><rect x="290" y="98" width="16" height="16" transform="rotate(0,298,106)"/><rect x="290" y="130" width="16" height="16" transform="rotate(0,298,138)"/><rect x="290" y="146" width="16" height="16" transform="rotate(0,298,154)"/><rect x="290" y="162" width="16" height="16" transform="rotate(0,298,170)"/><rect x="290" y="178" width="16" height="16" transform="rotate(0,298,186)"/><rect x="290" y="194" width="16" height="16" transform="rotate(0,298,202)"/><rect x="290" y="274" width="16" height="16" transform="rotate(0,298,282)"/><rect x="290" y="354" width="16" height="16" transform="rotate(0,298,362)"/><rect x="290" y="370" width="16" height="16" transform="rotate(0,298,378)"/><rect x="290" y="386" width="16" height="16" transform="rotate(0,298,394)"/><rect x="290" y="402" width="16" height="16" transform="rotate(0,298,410)"/><rect x="290" y="466" width="16" height="16" transform="rotate(0,298,474)"/><rect x="306" y="50" width="16" height="16" transform="rotate(0,314,58)"/><rect x="306" y="66" width="16" height="16" transform="rotate(0,314,74)"/><rect x="306" y="82" width="16" height="16" transform="rotate(0,314,90)"/><rect x="306" y="114" width="16" height="16" transform="rotate(0,314,122)"/><rect x="306" y="146" width="16" height="16" transform="rotate(0,314,154)"/><rect x="306" y="194" width="16" height="16" transform="rotate(0,314,202)"/><rect x="306" y="210" width="16" height="16" transform="rotate(0,314,218)"/><rect x="306" y="226" width="16" height="16" transform="rotate(0,314,234)"/><rect x="306" y="242" width="16" height="16" transform="rotate(0,314,250)"/><rect x="306" y="274" width="16" height="16" transform="rotate(0,314,282)"/><rect x="306" y="290" width="16" height="16" transform="rotate(0,314,298)"/><rect x="306" y="306" width="16" height="16" transform="rotate(0,314,314)"/><rect x="306" y="338" width="16" height="16" transform="rotate(0,314,346)"/><rect x="306" y="402" width="16" height="16" transform="rotate(0,314,410)"/><rect x="306" y="418" width="16" height="16" transform="rotate(0,314,426)"/><rect x="306" y="434" width="16" height="16" transform="rotate(0,314,442)"/><rect x="306" y="466" width="16" height="16" transform="rotate(0,314,474)"/><rect x="322" y="50" width="16" height="16" transform="rotate(0,330,58)"/><rect x="322" y="82" width="16" height="16" transform="rotate(0,330,90)"/><rect x="322" y="98" width="16" height="16" transform="rotate(0,330,106)"/><rect x="322" y="130" width="16" height="16" transform="rotate(0,330,138)"/><rect x="322" y="146" width="16" height="16" transform="rotate(0,330,154)"/><rect x="322" y="162" width="16" height="16" transform="rotate(0,330,170)"/><rect x="322" y="178" width="16" height="16" transform="rotate(0,330,186)"/><rect x="322" y="210" width="16" height="16" transform="rotate(0,330,218)"/><rect x="322" y="242" width="16" height="16" transform="rotate(0,330,250)"/><rect x="322" y="290" width="16" height="16" transform="rotate(0,330,298)"/><rect x="322" y="338" width="16" height="16" transform="rotate(0,330,346)"/><rect x="322" y="386" width="16" height="16" transform="rotate(0,330,394)"/><rect x="322" y="418" width="16" height="16" transform="rotate(0,330,426)"/><rect x="338" y="18" width="16" height="16" transform="rotate(0,346,26)"/><rect x="338" y="34" width="16" height="16" transform="rotate(0,346,42)"/><rect x="338" y="50" width="16" height="16" transform="rotate(0,346,58)"/><rect x="338" y="66" width="16" height="16" transform="rotate(0,346,74)"/><rect x="338" y="82" width="16" height="16" transform="rotate(0,346,90)"/><rect x="338" y="114" width="16" height="16" transform="rotate(0,346,122)"/><rect x="338" y="130" width="16" height="16" transform="rotate(0,346,138)"/><rect x="338" y="146" width="16" height="16" transform="rotate(0,346,154)"/><rect x="338" y="178" width="16" height="16" transform="rotate(0,346,186)"/><rect x="338" y="194" width="16" height="16" transform="rotate(0,346,202)"/><rect x="338" y="210" width="16" height="16" transform="rotate(0,346,218)"/><rect x="338" y="258" width="16" height="16" transform="rotate(0,346,266)"/><rect x="338" y="290" width="16" height="16" transform="rotate(0,346,298)"/><rect x="338" y="322" width="16" height="16" transform="rotate(0,346,330)"/><rect x="338" y="338" width="16" height="16" transform="rotate(0,346,346)"/><rect x="338" y="354" width="16" height="16" transform="rotate(0,346,362)"/><rect x="338" y="370" width="16" height="16" transform="rotate(0,346,378)"/><rect x="338" y="386" width="16" height="16" transform="rotate(0,346,394)"/><rect x="338" y="402" width="16" height="16" transform="rotate(0,346,410)"/><rect x="338" y="466" width="16" height="16" transform="rotate(0,346,474)"/><rect x="354" y="146" width="16" height="16" transform="rotate(0,362,154)"/><rect x="354" y="178" width="16" height="16" transform="rotate(0,362,186)"/><rect x="354" y="210" width="16" height="16" transform="rotate(0,362,218)"/><rect x="354" y="226" width="16" height="16" transform="rotate(0,362,234)"/><rect x="354" y="242" width="16" height="16" transform="rotate(0,362,250)"/><rect x="354" y="258" width="16" height="16" transform="rotate(0,362,266)"/><rect x="354" y="274" width="16" height="16" transform="rotate(0,362,282)"/><rect x="354" y="290" width="16" height="16" transform="rotate(0,362,298)"/><rect x="354" y="306" width="16" height="16" transform="rotate(0,362,314)"/><rect x="354" y="322" width="16" height="16" transform="rotate(0,362,330)"/><rect x="354" y="338" width="16" height="16" transform="rotate(0,362,346)"/><rect x="354" y="402" width="16" height="16" transform="rotate(0,362,410)"/><rect x="354" y="434" width="16" height="16" transform="rotate(0,362,442)"/><rect x="354" y="450" width="16" height="16" transform="rotate(0,362,458)"/><rect x="354" y="466" width="16" height="16" transform="rotate(0,362,474)"/><rect x="370" y="162" width="16" height="16" transform="rotate(0,378,170)"/><rect x="370" y="178" width="16" height="16" transform="rotate(0,378,186)"/><rect x="370" y="210" width="16" height="16" transform="rotate(0,378,218)"/><rect x="370" y="242" width="16" height="16" transform="rotate(0,378,250)"/><rect x="370" y="258" width="16" height="16" transform="rotate(0,378,266)"/><rect x="370" y="274" width="16" height="16" transform="rotate(0,378,282)"/><rect x="370" y="306" width="16" height="16" transform="rotate(0,378,314)"/><rect x="370" y="322" width="16" height="16" transform="rotate(0,378,330)"/><rect x="370" y="338" width="16" height="16" transform="rotate(0,378,346)"/><rect x="370" y="370" width="16" height="16" transform="rotate(0,378,378)"/><rect x="370" y="402" width="16" height="16" transform="rotate(0,378,410)"/><rect x="370" y="466" width="16" height="16" transform="rotate(0,378,474)"/><rect x="386" y="178" width="16" height="16" transform="rotate(0,394,186)"/><rect x="386" y="194" width="16" height="16" transform="rotate(0,394,202)"/><rect x="386" y="226" width="16" height="16" transform="rotate(0,394,234)"/><rect x="386" y="322" width="16" height="16" transform="rotate(0,394,330)"/><rect x="386" y="338" width="16" height="16" transform="rotate(0,394,346)"/><rect x="386" y="402" width="16" height="16" transform="rotate(0,394,410)"/><rect x="386" y="418" width="16" height="16" transform="rotate(0,394,426)"/><rect x="386" y="450" width="16" height="16" transform="rotate(0,394,458)"/><rect x="402" y="146" width="16" height="16" transform="rotate(0,410,154)"/><rect x="402" y="162" width="16" height="16" transform="rotate(0,410,170)"/><rect x="402" y="242" width="16" height="16" transform="rotate(0,410,250)"/><rect x="402" y="258" width="16" height="16" transform="rotate(0,410,266)"/><rect x="402" y="274" width="16" height="16" transform="rotate(0,410,282)"/><rect x="402" y="322" width="16" height="16" transform="rotate(0,410,330)"/><rect x="402" y="338" width="16" height="16" transform="rotate(0,410,346)"/><rect x="402" y="354" width="16" height="16" transform="rotate(0,410,362)"/><rect x="402" y="370" width="16" height="16" transform="rotate(0,410,378)"/><rect x="402" y="386" width="16" height="16" transform="rotate(0,410,394)"/><rect x="402" y="402" width="16" height="16" transform="rotate(0,410,410)"/><rect x="402" y="466" width="16" height="16" transform="rotate(0,410,474)"/><rect x="418" y="162" width="16" height="16" transform="rotate(0,426,170)"/><rect x="418" y="194" width="16" height="16" transform="rotate(0,426,202)"/><rect x="418" y="226" width="16" height="16" transform="rotate(0,426,234)"/><rect x="418" y="306" width="16" height="16" transform="rotate(0,426,314)"/><rect x="418" y="386" width="16" height="16" transform="rotate(0,426,394)"/><rect x="418" y="418" width="16" height="16" transform="rotate(0,426,426)"/><rect x="418" y="434" width="16" height="16" transform="rotate(0,426,442)"/><rect x="418" y="450" width="16" height="16" transform="rotate(0,426,458)"/><rect x="434" y="162" width="16" height="16" transform="rotate(0,442,170)"/><rect x="434" y="178" width="16" height="16" transform="rotate(0,442,186)"/><rect x="434" y="194" width="16" height="16" transform="rotate(0,442,202)"/><rect x="434" y="258" width="16" height="16" transform="rotate(0,442,266)"/><rect x="434" y="322" width="16" height="16" transform="rotate(0,442,330)"/><rect x="434" y="338" width="16" height="16" transform="rotate(0,442,346)"/><rect x="434" y="354" width="16" height="16" transform="rotate(0,442,362)"/><rect x="434" y="418" width="16" height="16" transform="rotate(0,442,426)"/><rect x="434" y="434" width="16" height="16" transform="rotate(0,442,442)"/><rect x="434" y="450" width="16" height="16" transform="rotate(0,442,458)"/><rect x="434" y="466" width="16" height="16" transform="rotate(0,442,474)"/><rect x="450" y="146" width="16" height="16" transform="rotate(0,458,154)"/><rect x="450" y="178" width="16" height="16" transform="rotate(0,458,186)"/><rect x="450" y="210" width="16" height="16" transform="rotate(0,458,218)"/><rect x="450" y="258" width="16" height="16" transform="rotate(0,458,266)"/><rect x="450" y="274" width="16" height="16" transform="rotate(0,458,282)"/><rect x="450" y="290" width="16" height="16" transform="rotate(0,458,298)"/><rect x="450" y="338" width="16" height="16" transform="rotate(0,458,346)"/><rect x="450" y="370" width="16" height="16" transform="rotate(0,458,378)"/><rect x="450" y="386" width="16" height="16" transform="rotate(0,458,394)"/><rect x="450" y="418" width="16" height="16" transform="rotate(0,458,426)"/><rect x="450" y="450" width="16" height="16" transform="rotate(0,458,458)"/><rect x="450" y="466" width="16" height="16" transform="rotate(0,458,474)"/><rect x="466" y="194" width="16" height="16" transform="rotate(0,474,202)"/><rect x="466" y="210" width="16" height="16" transform="rotate(0,474,218)"/><rect x="466" y="226" width="16" height="16" transform="rotate(0,474,234)"/><rect x="466" y="290" width="16" height="16" transform="rotate(0,474,298)"/><rect x="466" y="306" width="16" height="16" transform="rotate(0,474,314)"/><rect x="466" y="338" width="16" height="16" transform="rotate(0,474,346)"/><rect x="466" y="402" width="16" height="16" transform="rotate(0,474,410)"/><rect x="466" y="450" width="16" height="16" transform="rotate(0,474,458)"/><path clip-rule="evenodd" d="M 18 18v 112h 112v -112zM 34 34h 80v 80h -80z" transform="rotate(0,74,74)"/><rect x="50" y="50" width="48" height="48" transform="rotate(0,74,74)"/><path clip-rule="evenodd" d="M 370 18v 112h 112v -112zM 386 34h 80v 80h -80z" transform="rotate(90,426,74)"/><rect x="402" y="50" width="48" height="48" transform="rotate(90,426,74)"/><path clip-rule="evenodd" d="M 18 370v 112h 112v -112zM 34 386h 80v 80h -80z" transform="rotate(-90,74,426)"/><rect x="50" y="402" width="48" height="48" transform="rotate(-90,74,426)"/></clipPath></defs><rect x="0" y="0" height="500" width="500" clip-path="url('#clip-path-background-color')" fill="#fff"/><rect x="0" y="0" height="500" width="500" clip-path="url('#clip-path-dot-color')" fill="#000000"/></svg>